<?xml version="1.0" standalone="no"?>
<!DOCTYPE svg PUBLIC "-//W3C//DTD SVG 20010904//EN"
 "http://www.w3.org/TR/2001/REC-SVG-20010904/DTD/svg10.dtd">
<svg version="1.0" xmlns="http://www.w3.org/2000/svg"
 width="2521.000000pt" height="2521.000000pt" viewBox="0 0 2521.000000 2521.000000"
 preserveAspectRatio="xMidYMid meet">
<metadata>
Created by potrace 1.14, written by Peter Selinger 2001-2017
</metadata>
<g transform="translate(0.000000,2521.000000) scale(0.100000,-0.100000)"
fill="#000000" stroke="none">
<path d="M12178 23215 c-1 -2 -73 -6 -158 -10 -85 -3 -171 -8 -190 -10 -19 -2
-80 -6 -135 -10 -55 -3 -107 -8 -115 -10 -8 -2 -51 -7 -95 -10 -44 -3 -91 -7
-105 -10 -14 -2 -54 -7 -90 -11 -67 -6 -93 -9 -158 -18 -20 -3 -57 -8 -82 -11
-25 -3 -72 -10 -105 -15 -33 -5 -78 -12 -100 -15 -22 -4 -47 -8 -55 -10 -8 -2
-35 -7 -60 -10 -25 -3 -52 -8 -60 -10 -8 -3 -34 -7 -56 -10 -23 -3 -120 -21
-215 -41 -96 -19 -186 -37 -201 -40 -20 -4 -353 -83 -458 -109 -286 -71 -857
-254 -1153 -370 -383 -150 -677 -280 -1007 -445 -135 -67 -249 -125 -255 -130
-5 -4 -55 -31 -110 -60 -55 -29 -112 -61 -127 -72 -14 -10 -29 -18 -31 -18 -7
0 -282 -163 -402 -238 -127 -80 -496 -327 -564 -379 -9 -6 -90 -67 -181 -134
-91 -67 -167 -125 -170 -128 -3 -3 -30 -25 -62 -49 -31 -24 -67 -53 -80 -65
-13 -12 -49 -41 -80 -65 -31 -24 -67 -53 -80 -65 -13 -12 -39 -35 -58 -51
-226 -186 -629 -569 -860 -815 -484 -518 -860 -998 -1236 -1581 -95 -147 -162
-257 -286 -475 -112 -197 -378 -709 -378 -729 0 -3 -22 -51 -48 -108 -27 -57
-69 -150 -93 -208 -24 -58 -51 -120 -59 -138 l-16 -33 -25 19 c-22 17 -167
104 -249 149 -19 11 -84 48 -145 83 -152 87 -161 91 -195 92 -47 2 -55 -13
-32 -58 28 -54 62 -96 188 -227 135 -141 156 -181 164 -302 6 -101 24 -142 86
-192 l34 -28 -70 -214 c-38 -117 -70 -220 -70 -227 0 -17 -17 -18 -34 -1 -17
16 -121 108 -295 262 -19 17 -39 35 -45 40 -6 6 -72 64 -146 130 -266 236
-426 385 -618 573 l-105 103 -51 -2 c-76 -3 -199 -53 -221 -88 -14 -24 -15
-41 -2 -70 17 -39 100 -160 142 -206 54 -60 84 -126 91 -197 10 -119 28 -172
113 -338 223 -435 550 -951 833 -1309 32 -40 56 -76 54 -80 -2 -3 -7 -28 -10
-56 -4 -27 -11 -72 -16 -100 -5 -27 -12 -68 -14 -90 -3 -22 -12 -85 -20 -140
-8 -55 -17 -125 -21 -155 -3 -30 -8 -66 -10 -80 -3 -23 -14 -127 -21 -205 -1
-16 -3 -47 -3 -67 -2 -81 -60 -27 -102 93 -66 188 -145 274 -431 467 -174 118
-278 223 -424 429 -56 78 -510 737 -547 793 -66 99 -104 120 -155 84 -27 -18
-29 -62 -7 -124 8 -24 17 -55 20 -69 5 -27 33 -154 40 -181 2 -8 8 -33 13 -55
84 -342 288 -828 516 -1229 31 -54 56 -100 56 -102 0 -3 23 -41 50 -85 28 -44
50 -82 50 -84 0 -2 27 -48 61 -102 158 -254 247 -344 409 -412 122 -52 154
-95 223 -302 33 -98 75 -173 166 -295 18 -26 24 -47 26 -110 5 -128 17 -336
20 -374 2 -19 6 -73 10 -120 3 -47 8 -96 10 -110 2 -14 6 -56 10 -95 3 -38 7
-81 10 -95 2 -14 7 -52 10 -85 4 -33 13 -107 21 -165 8 -58 17 -121 20 -140 2
-19 7 -46 9 -60 3 -14 8 -41 11 -60 43 -271 109 -582 188 -890 31 -118 58
-223 61 -233 22 -90 159 -516 228 -708 157 -438 420 -1023 633 -1409 19 -36
54 -98 76 -139 44 -80 172 -299 185 -317 13 -17 32 -47 49 -79 93 -168 449
-678 668 -955 129 -163 366 -446 461 -550 27 -30 77 -84 110 -120 88 -97 538
-544 634 -630 45 -41 94 -85 108 -98 73 -67 305 -262 423 -357 74 -59 144
-115 155 -124 33 -26 290 -216 410 -303 108 -77 549 -365 620 -404 11 -6 81
-47 155 -91 74 -44 167 -97 205 -118 39 -21 111 -60 160 -87 695 -380 1636
-749 2405 -944 74 -19 151 -39 170 -44 56 -16 242 -59 285 -66 22 -3 43 -8 46
-10 5 -3 101 -23 179 -38 14 -3 50 -10 80 -16 30 -6 69 -13 85 -16 182 -31
256 -44 290 -49 22 -3 67 -10 100 -15 59 -9 114 -16 188 -25 20 -3 54 -7 75
-10 20 -2 55 -7 77 -9 35 -5 106 -12 305 -31 321 -30 555 -39 1015 -39 381 0
592 6 760 20 33 3 87 7 120 9 113 8 356 32 415 40 14 2 50 6 80 10 30 3 73 8
95 11 22 3 51 7 65 9 70 9 116 17 235 36 72 11 139 22 150 24 21 3 183 32 225
40 14 3 59 12 100 20 41 8 84 17 95 19 11 2 53 12 94 21 40 9 78 18 85 19 48
8 246 59 426 108 118 33 222 61 230 63 163 38 893 295 1095 385 11 5 79 33
150 63 118 50 170 73 345 154 84 39 466 230 513 257 23 13 73 40 110 60 235
127 553 320 817 496 133 89 419 290 447 314 7 6 51 40 99 76 539 403 1171 991
1654 1540 41 47 77 87 80 90 18 16 224 267 316 385 182 231 327 434 513 713
67 101 151 220 186 266 36 46 65 90 65 98 0 8 4 18 9 23 4 6 52 96 106 200 54
105 112 217 130 250 70 129 227 441 279 552 89 195 102 224 150 343 26 63 51
124 56 135 60 130 294 835 334 1005 2 9 20 74 40 146 20 71 38 139 40 149 3
11 14 61 26 110 12 50 23 97 25 105 2 8 12 53 23 100 11 47 34 154 51 238 17
83 38 171 46 195 8 23 16 80 20 127 5 85 9 140 20 255 2 33 7 89 10 125 3 36
7 92 10 125 3 33 7 94 10 135 3 41 7 93 10 115 2 22 7 81 10 130 3 50 8 109
11 132 2 23 6 77 9 120 3 43 7 94 10 113 2 19 7 69 10 110 4 41 9 89 11 105 2
17 6 49 9 72 3 23 15 72 26 110 11 37 21 76 24 87 2 10 14 37 26 60 85 164
185 250 353 306 38 12 81 34 96 49 22 22 90 123 90 135 0 2 40 66 88 142 319
501 550 971 697 1419 61 189 62 192 151 550 12 48 8 77 -17 104 -52 55 -103
-5 -429 -494 -141 -212 -284 -414 -336 -475 -199 -233 -357 -373 -539 -475
-123 -69 -154 -102 -189 -205 -21 -59 -42 -97 -67 -125 -21 -22 -40 -37 -43
-34 -4 3 -15 55 -26 115 -11 60 -22 123 -26 139 -3 17 -8 98 -10 180 -4 132
-7 157 -29 205 -74 169 -52 260 120 480 186 240 349 487 493 750 111 203 244
470 250 503 1 4 8 20 15 35 8 15 27 63 42 107 67 194 120 300 194 391 23 27
41 56 41 66 0 45 -131 127 -208 130 -49 2 -87 -22 -182 -112 -36 -34 -78 -74
-95 -88 -58 -53 -232 -208 -300 -267 -38 -33 -100 -91 -139 -129 -39 -37 -92
-80 -117 -95 -25 -14 -74 -57 -110 -96 -35 -38 -75 -79 -89 -90 -13 -11 -54
-48 -90 -82 -74 -72 -109 -84 -164 -58 -58 28 -97 135 -97 267 0 68 15 143 32
165 6 6 11 60 13 120 2 86 7 117 24 155 29 61 84 134 169 221 121 124 223 250
223 275 0 23 -4 21 -105 -32 -133 -71 -233 -127 -390 -216 -22 -13 -63 -35
-92 -50 -98 -50 -142 -22 -212 136 -182 408 -446 896 -689 1274 -113 175 -359
533 -424 615 -4 6 -49 64 -99 130 -51 66 -115 149 -144 185 -29 36 -62 84 -74
107 -25 50 -168 201 -646 678 -299 300 -479 473 -572 552 -20 17 -153 137
-212 192 -14 12 -62 55 -105 95 -44 39 -86 77 -93 85 -8 8 -42 32 -75 53 -33
22 -105 73 -159 114 -414 313 -835 591 -1299 857 -181 104 -609 323 -805 412
-724 329 -1385 555 -2145 734 -103 24 -287 64 -350 76 -8 1 -64 12 -125 23
-106 20 -313 55 -385 66 -19 3 -82 12 -140 20 -58 8 -132 18 -165 21 -33 4
-67 8 -75 10 -8 2 -49 7 -90 10 -41 3 -86 8 -100 10 -14 2 -59 6 -100 10 -41
3 -95 8 -120 10 -25 3 -88 8 -140 11 -52 3 -131 8 -175 11 -90 5 -1021 13
-1027 8z m982 -1338 c14 -3 74 -8 135 -12 60 -4 118 -9 130 -10 11 -2 52 -6
90 -10 77 -6 316 -33 355 -40 14 -2 61 -9 106 -15 44 -6 91 -13 105 -15 13 -3
42 -7 64 -10 38 -5 52 -7 115 -21 14 -3 38 -7 55 -9 16 -3 64 -11 105 -20 41
-8 89 -17 105 -20 53 -10 77 -15 235 -51 650 -147 1358 -388 1945 -664 284
-133 613 -305 770 -401 17 -11 37 -22 45 -26 36 -16 272 -161 425 -261 114
-75 380 -259 410 -284 11 -9 79 -60 150 -114 192 -143 413 -325 595 -489 24
-22 71 -65 105 -95 101 -91 505 -499 600 -605 365 -408 645 -772 910 -1180 53
-82 105 -161 114 -175 10 -14 34 -54 55 -90 20 -36 42 -74 49 -85 7 -11 27
-43 45 -72 17 -30 32 -55 32 -56 0 -2 28 -53 61 -113 57 -101 299 -577 299
-587 0 -3 17 -43 39 -89 51 -110 151 -353 151 -366 0 -10 -16 -21 -205 -137
-563 -347 -892 -633 -1109 -965 -90 -137 -96 -140 -216 -88 -41 17 -99 35
-128 38 l-53 6 -67 -85 c-223 -288 -423 -516 -720 -822 -73 -75 -158 -170
-189 -210 -30 -41 -79 -99 -107 -129 -29 -30 -78 -86 -109 -125 -62 -77 -97
-117 -225 -250 -106 -111 -169 -184 -252 -295 -35 -47 -71 -92 -80 -100 -61
-58 -121 -173 -100 -194 14 -14 95 -13 112 1 14 11 187 101 653 337 160 81
297 151 305 156 8 5 29 15 45 23 27 13 119 60 718 365 103 53 203 109 223 125
41 34 71 89 80 146 9 57 58 126 110 157 23 14 105 47 181 75 165 58 215 83
266 128 53 48 84 105 101 186 16 78 38 103 110 126 97 31 240 101 318 155 162
113 296 250 349 357 24 49 73 100 114 119 12 5 29 22 38 36 26 44 95 123 100
115 2 -5 8 -21 12 -38 5 -16 9 -34 11 -40 2 -5 10 -35 19 -65 27 -94 95 -359
104 -407 l9 -46 -67 -67 c-36 -37 -109 -100 -161 -141 -52 -40 -97 -76 -100
-79 -3 -3 -36 -32 -75 -65 -253 -215 -419 -440 -510 -695 -25 -70 -29 -84 -39
-135 -28 -145 -76 -277 -139 -389 -50 -89 -93 -144 -175 -224 -76 -74 -117
-103 -269 -192 -227 -132 -311 -234 -329 -400 -12 -113 -34 -151 -144 -259
-144 -140 -598 -582 -684 -664 -610 -593 -629 -613 -631 -657 0 -9 14 -19 36
-24 30 -7 43 -5 67 10 48 30 319 193 407 244 44 26 220 129 390 230 171 101
319 188 330 194 11 6 65 38 120 71 120 72 114 68 212 126 43 25 166 97 273
161 107 63 274 161 370 218 242 142 302 194 434 370 39 52 73 97 77 100 3 3
25 30 48 60 112 143 369 410 521 541 132 114 241 201 246 196 15 -15 22 -650
11 -922 -13 -308 -17 -336 -45 -380 -40 -62 -280 -297 -521 -511 -25 -21 -54
-48 -66 -59 -11 -11 -58 -54 -104 -95 -296 -264 -559 -522 -740 -723 -58 -65
-107 -122 -109 -127 -8 -20 325 122 449 193 75 42 139 77 143 77 4 0 26 15 49
34 50 41 83 51 120 37 37 -14 43 -36 24 -77 l-16 -33 46 -21 c29 -13 50 -17
57 -11 6 5 36 18 66 28 91 32 252 146 328 231 112 127 170 187 176 182 3 -4
-30 -176 -79 -401 -2 -9 -22 -90 -45 -180 -23 -90 -43 -168 -44 -174 -8 -32
-28 -104 -35 -125 -5 -14 -17 -52 -26 -85 -21 -73 -103 -332 -114 -360 -5 -11
-43 -114 -86 -230 -43 -115 -86 -228 -96 -250 -9 -22 -45 -105 -79 -185 -62
-146 -274 -581 -350 -719 -289 -527 -669 -1090 -1000 -1482 -84 -99 -224 -264
-235 -275 -5 -6 -50 -55 -100 -110 -167 -183 -420 -431 -555 -544 -36 -30 -69
-60 -75 -66 -16 -18 -167 -135 -207 -160 -20 -13 -103 -79 -185 -147 -197
-164 -293 -237 -448 -343 -156 -107 -467 -305 -515 -328 -8 -4 -24 -12 -35
-19 -41 -25 -182 -105 -235 -134 -30 -17 -93 -52 -140 -78 -119 -66 -563 -284
-695 -340 -60 -26 -123 -53 -140 -61 -279 -126 -1048 -381 -1355 -449 -8 -2
-71 -17 -140 -34 -105 -25 -384 -83 -470 -97 -14 -2 -35 -6 -47 -9 -12 -3 -39
-7 -60 -10 -21 -3 -49 -7 -63 -10 -14 -3 -45 -8 -70 -11 -25 -3 -52 -7 -60 -9
-8 -2 -42 -7 -75 -11 -33 -3 -63 -8 -66 -10 -3 -2 -35 -6 -70 -9 -35 -3 -75
-7 -89 -10 -14 -2 -52 -7 -85 -10 -33 -3 -82 -8 -110 -11 -89 -9 -128 -12
-225 -19 -52 -3 -113 -8 -135 -10 -189 -18 -836 -24 -1150 -11 -172 8 -193 9
-345 21 -47 4 -103 8 -125 10 -77 6 -200 17 -230 21 -16 2 -59 6 -95 10 -36 3
-74 8 -85 10 -11 2 -45 7 -75 10 -71 7 -92 10 -170 23 -36 6 -82 13 -104 17
-21 3 -48 8 -60 10 -11 2 -34 7 -51 9 -217 38 -601 128 -850 200 -157 46 -451
138 -490 155 -11 4 -78 29 -150 55 -123 44 -253 93 -320 120 -168 69 -389 162
-434 182 -266 120 -672 324 -804 404 -26 16 -49 29 -52 29 -5 0 -292 171 -365
218 -461 296 -821 567 -1215 915 -238 210 -675 651 -820 827 -21 25 -40 47
-44 50 -12 9 -198 235 -293 356 -323 413 -669 935 -898 1359 -260 479 -490
1048 -702 1730 -48 155 -60 213 -62 285 -1 31 2 35 26 38 15 2 49 -8 75 -21
49 -24 131 -54 171 -62 14 -2 28 6 46 30 29 38 99 75 142 75 35 0 104 -35 202
-101 37 -25 90 -53 117 -63 28 -11 109 -49 180 -85 176 -89 169 -87 150 -53
-63 113 -120 177 -439 496 -307 307 -351 347 -517 461 -185 128 -325 316 -383
517 -43 149 -48 216 -48 662 0 231 1 429 1 438 1 24 45 51 71 43 23 -7 149
-113 257 -216 91 -87 206 -217 263 -297 211 -298 414 -476 805 -702 17 -10
118 -68 225 -130 107 -62 209 -120 225 -130 40 -24 519 -307 573 -339 24 -14
58 -34 75 -45 115 -67 308 -182 337 -201 54 -34 384 -229 395 -234 6 -2 21
-12 35 -21 14 -9 35 -19 48 -23 22 -5 92 9 92 19 0 19 -80 114 -169 204 -107
106 -568 553 -651 631 -65 61 -323 305 -463 439 -127 121 -167 181 -167 250
-1 50 -44 166 -84 225 -74 106 -201 216 -315 270 -278 133 -462 402 -535 781
-14 71 -62 215 -92 277 -39 77 -51 99 -103 177 -81 122 -206 248 -361 363
-158 118 -230 189 -267 265 -51 104 -39 189 62 424 l58 137 26 -19 c14 -11 33
-25 42 -32 8 -7 61 -69 116 -138 161 -202 288 -309 474 -400 45 -22 86 -40 90
-40 4 0 35 -16 68 -35 110 -65 156 -127 181 -248 13 -64 42 -95 112 -121 218
-79 321 -119 355 -138 97 -56 147 -123 168 -226 16 -79 46 -110 135 -143 30
-11 59 -24 65 -28 5 -5 172 -90 370 -191 1077 -547 1309 -667 1375 -710 64
-43 110 -51 147 -25 30 21 23 55 -25 117 -104 135 -329 398 -444 519 -70 74
-139 148 -154 164 -14 17 -45 50 -68 75 -23 25 -77 86 -120 135 -43 50 -88
101 -100 115 -13 14 -69 79 -125 145 -57 66 -113 131 -125 145 -12 14 -80 93
-151 175 -71 83 -144 166 -161 185 -18 19 -79 90 -136 157 -79 93 -104 131
-106 155 -2 18 -4 34 -7 36 -2 2 -41 17 -86 33 -96 32 -146 32 -216 -2 -50
-24 -103 -21 -135 8 -11 10 -49 61 -84 114 -207 310 -510 577 -1014 892 -244
152 -268 234 -156 524 54 137 178 402 206 438 4 6 22 37 40 70 18 33 74 125
123 205 80 128 140 221 302 470 24 36 76 119 117 185 115 185 297 454 345 510
5 6 38 48 73 95 123 162 462 566 580 691 8 8 74 78 145 154 254 270 431 434
590 545 28 19 84 69 126 110 116 115 218 203 394 338 225 173 766 525 1080
704 220 125 689 368 710 368 2 0 40 16 82 36 43 20 94 43 113 51 19 8 49 20
65 27 17 7 41 18 55 24 14 5 41 17 60 25 169 74 583 224 790 287 41 12 93 28
115 35 89 28 428 120 485 131 14 2 31 7 39 10 19 6 356 81 401 89 31 5 74 13
160 30 14 3 41 8 60 10 19 3 44 8 56 10 12 3 39 7 60 10 21 4 46 8 54 10 8 2
38 7 65 10 28 4 57 8 65 10 8 3 38 7 66 10 28 3 61 7 73 10 13 2 49 7 80 10
31 4 66 8 79 10 13 2 53 7 90 10 37 4 77 8 90 10 12 2 62 7 110 10 48 4 98 8
111 10 13 2 83 7 155 11 72 3 133 8 135 10 5 5 811 -4 841 -9z"/>
<path d="M11898 21674 c-2 -1 -43 -5 -93 -9 -49 -3 -97 -8 -105 -10 -8 -2 -42
-6 -75 -10 -33 -3 -71 -7 -85 -10 -14 -2 -47 -7 -75 -10 -27 -3 -84 -10 -125
-16 -41 -6 -84 -12 -95 -14 -20 -3 -323 -53 -360 -60 -162 -30 -467 -97 -600
-130 -33 -9 -69 -17 -81 -19 -11 -1 -25 -6 -31 -9 -5 -3 -21 -8 -35 -11 -14
-2 -88 -21 -164 -43 -191 -53 -227 -90 -198 -203 6 -25 108 -286 227 -580 232
-580 481 -1221 602 -1555 42 -115 82 -226 90 -245 7 -19 28 -75 45 -125 17
-49 35 -99 40 -110 5 -11 15 -40 23 -65 42 -125 176 -510 191 -544 14 -33 87
-115 105 -117 3 0 15 -3 26 -5 52 -12 128 -4 320 32 111 20 196 106 198 198 0
46 -12 193 -19 216 -3 14 -6 31 -19 158 -4 44 -9 85 -21 192 -2 25 -7 68 -9
95 -3 28 -7 68 -10 90 -3 22 -7 67 -10 100 -3 33 -7 78 -10 100 -5 48 -16 155
-20 210 -1 22 -6 69 -10 105 -13 108 -13 124 2 153 29 57 105 54 142 -6 27
-44 325 -637 390 -777 74 -157 143 -312 203 -455 86 -205 96 -225 120 -234 13
-4 181 -7 374 -5 337 2 353 3 398 24 87 41 121 102 165 292 36 155 83 330 128
478 19 63 36 122 38 130 9 41 71 249 107 360 42 130 70 203 118 304 l29 59 8
-39 c16 -77 6 -1074 -12 -1209 -2 -16 -9 -70 -16 -120 -6 -49 -13 -99 -15
-110 -35 -174 -1 -244 138 -285 76 -22 196 -62 333 -110 140 -49 200 -46 251
11 12 13 46 96 77 184 30 88 72 205 92 260 20 55 47 132 60 170 13 39 30 88
38 110 9 22 52 144 97 270 91 256 158 443 231 645 26 74 98 275 160 445 61
171 190 526 286 790 99 272 176 499 178 524 8 107 -13 117 -495 235 -294 72
-560 127 -770 161 -19 3 -60 10 -90 15 -30 5 -75 12 -100 15 -25 3 -56 8 -70
10 -90 14 -163 22 -256 30 -43 4 -88 9 -98 11 -40 7 -225 18 -321 18 -177 1
-216 -37 -287 -275 -26 -85 -68 -221 -93 -304 -26 -82 -50 -163 -55 -180 -4
-16 -33 -111 -63 -210 -185 -608 -222 -727 -254 -838 -14 -48 -29 -84 -33 -80
-4 4 -20 62 -35 128 -21 93 -91 376 -149 605 -2 8 -11 42 -20 75 -9 33 -19 69
-21 80 -3 11 -34 128 -70 260 -84 304 -87 315 -130 465 -20 69 -41 140 -45
158 -5 19 -21 55 -37 80 -39 65 -97 93 -180 91 -35 -1 -64 -3 -65 -5z"/>
<path d="M9335 21050 c-11 -4 -87 -34 -170 -66 -82 -31 -238 -96 -345 -144
-589 -263 -620 -280 -620 -337 0 -17 230 -486 606 -1238 l606 -1210 1 -66 c3
-236 -258 -307 -429 -116 -47 53 -74 86 -74 91 0 4 -261 426 -365 591 -18 28
-85 137 -151 243 -217 352 -250 406 -307 497 -124 200 -203 326 -212 343 -37
65 -299 481 -313 498 -42 50 -101 70 -155 52 -40 -14 -60 -27 -334 -224 -280
-201 -525 -374 -620 -440 -41 -28 -80 -60 -88 -71 -37 -52 -23 -102 51 -179
42 -44 151 -164 204 -224 12 -13 118 -131 175 -194 125 -138 207 -229 235
-260 19 -21 46 -51 60 -66 14 -15 53 -58 86 -96 34 -38 72 -81 85 -95 13 -14
60 -66 105 -115 44 -49 130 -143 190 -209 60 -66 140 -155 178 -198 70 -79 79
-89 170 -188 28 -30 71 -78 95 -105 224 -251 261 -289 351 -359 133 -102 320
-180 470 -194 94 -9 369 1 390 14 4 2 22 7 41 10 19 3 42 8 51 11 9 3 25 6 35
8 85 17 218 67 346 132 177 90 318 193 468 343 85 85 113 121 142 181 20 41
39 89 42 105 21 105 24 188 11 282 -15 110 -17 118 -111 433 -63 209 -119 405
-279 970 -15 52 -29 103 -31 112 -2 9 -13 50 -24 90 -40 144 -124 467 -167
643 -26 105 -84 343 -88 360 -78 350 -105 396 -232 394 -33 0 -68 -4 -79 -9z"/>
<path d="M16415 20989 c-11 -6 -27 -20 -36 -32 -20 -27 -126 -225 -244 -452
-48 -93 -116 -224 -150 -290 -78 -149 -507 -1007 -605 -1210 -74 -152 -164
-339 -250 -520 -26 -55 -82 -171 -124 -259 -42 -87 -76 -160 -76 -161 0 -1
-32 -69 -71 -151 -84 -175 -95 -233 -58 -283 27 -37 168 -110 289 -150 159
-53 229 -30 323 106 70 102 194 258 245 310 111 111 169 101 445 -81 201 -132
270 -214 261 -309 -9 -99 -89 -243 -257 -465 -111 -146 -110 -149 107 -296 61
-42 149 -106 194 -143 133 -108 157 -124 174 -118 8 3 83 90 166 193 83 103
195 241 249 308 112 137 279 344 368 454 33 41 62 77 66 80 7 7 195 232 309
370 34 41 71 85 81 98 11 13 106 130 210 260 105 130 198 246 207 257 10 11
41 51 70 89 30 37 60 75 68 85 7 9 70 88 139 176 70 88 179 227 243 308 140
177 172 229 172 280 0 48 -18 83 -66 127 -35 31 -377 290 -524 395 -30 22 -59
44 -65 48 -26 22 -310 215 -404 274 -58 36 -129 81 -158 100 -200 128 -728
408 -978 518 -60 26 -130 57 -155 68 -52 23 -136 32 -165 16z m651 -1574 c18
-28 13 -78 -16 -160 -10 -27 -35 -104 -56 -170 -48 -155 -106 -304 -151 -383
-61 -111 -117 -114 -238 -15 -158 129 -165 149 -77 245 31 34 66 72 77 83 12
11 92 99 180 195 195 214 186 205 210 218 32 18 53 14 71 -13z"/>
<path d="M19228 18795 c-2 -1 -28 -5 -59 -8 -184 -20 -353 -149 -623 -477 -61
-74 -115 -140 -121 -146 -14 -16 -33 -40 -75 -94 -19 -25 -37 -47 -40 -50 -3
-3 -32 -36 -65 -75 -33 -38 -78 -90 -101 -115 -191 -206 -277 -413 -275 -655
1 -38 3 -83 6 -100 18 -100 86 -239 289 -590 200 -346 233 -444 186 -553 -25
-58 -95 -128 -156 -157 -105 -50 -185 -3 -356 207 -18 23 -38 46 -43 52 -6 6
-66 79 -134 161 -170 206 -191 225 -246 225 -43 0 -74 -23 -185 -132 -58 -56
-134 -129 -168 -162 -90 -85 -86 -102 61 -254 56 -59 139 -152 183 -207 45
-55 91 -110 102 -123 11 -13 35 -42 54 -64 18 -23 45 -56 59 -73 37 -43 124
-163 204 -280 255 -375 407 -525 560 -553 60 -11 153 -4 221 16 38 12 72 22
76 22 4 1 38 16 75 34 37 18 120 56 183 84 143 63 202 95 260 141 141 110 200
224 201 380 0 42 -3 87 -6 101 -3 14 -8 38 -11 54 -2 16 -7 33 -10 38 -3 4 -7
18 -9 30 -16 81 -94 328 -193 603 -195 547 -210 604 -182 692 29 90 155 172
245 159 107 -14 168 -70 347 -316 152 -208 238 -326 413 -560 71 -97 150 -205
174 -241 25 -38 64 -80 90 -98 69 -46 112 -43 306 24 88 31 289 99 447 151
160 53 306 108 332 124 76 49 77 100 5 340 -142 477 -366 915 -733 1435 -222
315 -455 577 -636 715 -25 19 -47 38 -50 41 -12 14 -142 100 -216 143 -90 51
-194 90 -270 100 -90 12 -112 14 -116 11z"/>
<path d="M6119 18773 c-117 -16 -243 -54 -342 -104 -154 -77 -184 -104 -482
-435 -36 -39 -178 -208 -270 -319 -78 -94 -271 -353 -366 -490 -173 -250 -316
-485 -442 -725 -78 -150 -120 -227 -188 -350 -115 -206 -170 -347 -171 -442
-1 -52 29 -82 100 -101 84 -23 972 -307 1147 -368 231 -79 2216 -749 2221
-749 12 0 91 123 132 205 63 125 171 370 176 399 5 29 -20 85 -52 120 -15 15
-58 52 -97 82 -97 74 -118 93 -298 272 -87 86 -176 183 -197 215 -36 53 -39
63 -36 115 3 64 19 100 129 287 92 156 140 256 216 444 35 85 68 166 73 180
23 55 40 161 54 336 5 66 4 296 -2 360 -39 424 -281 793 -634 964 -198 96
-445 134 -671 104z m81 -1521 c92 -48 133 -130 145 -283 4 -62 1 -91 -20 -163
-46 -160 -101 -211 -195 -182 -49 16 -308 150 -396 206 -84 53 -50 204 72 325
80 79 173 122 267 124 62 1 80 -2 127 -27z"/>
<path d="M9580 17029 c-89 -36 -143 -160 -155 -354 -7 -128 -8 -433 0 -444 3
-6 8 -20 11 -31 2 -11 6 -30 9 -41 2 -12 29 -65 59 -118 73 -127 125 -242 170
-373 54 -157 76 -253 92 -403 19 -184 62 -275 166 -345 37 -25 70 -48 74 -52
6 -6 -12 -41 -108 -207 -31 -55 -95 -214 -116 -293 -38 -137 -45 -202 -47
-413 -3 -280 -6 -295 -80 -475 -45 -107 -87 -257 -104 -365 -10 -64 -8 -320 3
-370 27 -125 49 -202 74 -266 56 -141 162 -352 218 -435 l57 -84 33 82 c38 93
44 101 67 93 18 -8 17 -12 -29 -114 -19 -40 -37 -84 -40 -98 -4 -13 -12 -27
-18 -29 -7 -3 -65 20 -131 50 -65 31 -121 54 -123 51 -5 -4 51 -106 91 -165
17 -25 39 -57 49 -72 10 -15 20 -42 23 -61 l6 -34 -123 -65 c-68 -36 -168 -89
-223 -118 -55 -29 -118 -68 -140 -85 -22 -18 -56 -42 -75 -55 l-35 -22 40 7
c22 4 45 10 50 15 17 13 169 69 303 111 70 22 141 44 157 49 50 16 -70 -87
-217 -186 -126 -86 -212 -153 -205 -160 8 -8 233 80 247 97 19 23 306 126 318
114 15 -15 -71 -122 -214 -266 -68 -69 -121 -128 -118 -132 3 -3 35 5 70 17
35 13 64 20 64 16 0 -4 -9 -19 -20 -33 -11 -14 -20 -27 -20 -30 0 -2 21 0 46
5 53 12 59 8 50 -27 -8 -32 -45 -70 -143 -148 -135 -107 -240 -231 -231 -273
3 -18 69 30 243 180 104 90 223 176 242 176 21 0 -6 -44 -77 -125 -34 -38 -70
-88 -80 -110 -11 -22 -31 -55 -46 -72 -24 -29 -24 -33 -8 -33 39 1 103 54 187
153 52 62 162 148 201 158 22 6 29 0 62 -57 44 -74 105 -139 163 -169 77 -42
109 -74 171 -176 35 -56 69 -109 76 -118 132 -165 219 -239 357 -305 141 -67
277 -94 448 -90 204 4 250 26 529 253 119 97 153 115 250 136 8 2 48 11 87 19
96 21 187 52 246 84 117 63 290 322 375 562 45 127 53 154 83 285 15 66 28
116 29 110 1 -5 4 -19 7 -30 2 -11 6 -68 8 -126 7 -222 -62 -406 -222 -585
-66 -74 -87 -112 -71 -131 14 -17 67 -30 153 -39 39 -3 77 -8 86 -9 9 -2 40
-6 70 -10 30 -3 65 -8 79 -10 25 -4 54 -8 160 -21 30 -3 62 -8 70 -9 8 -2 49
-6 90 -10 41 -4 83 -9 92 -10 83 -16 436 -23 583 -12 189 15 334 43 505 98
266 85 507 243 677 444 49 58 133 178 133 190 0 3 12 24 26 47 15 23 58 105
96 183 38 77 73 148 79 158 42 77 141 362 174 497 36 153 37 161 60 340 9 67
5 271 -5 311 -29 106 -70 154 -187 214 -50 26 -85 52 -99 73 -27 39 -38 111
-29 183 3 30 8 70 10 89 2 19 6 58 10 85 3 28 8 73 10 101 4 51 12 118 21 183
2 18 7 59 9 90 3 31 10 88 15 126 5 39 12 102 16 140 3 39 8 78 9 87 2 9 6 48
10 85 3 37 11 89 16 114 48 216 43 263 -37 366 -70 89 -72 107 -34 259 18 71
34 140 36 154 3 14 7 32 9 40 11 38 27 175 31 279 4 91 14 147 50 285 24 94
69 268 100 386 l56 215 -5 175 c-4 147 -9 184 -27 232 -32 85 -119 214 -230
341 -76 87 -153 92 -228 16 -37 -37 -244 -337 -465 -672 -7 -11 -36 -50 -64
-89 -29 -38 -69 -97 -88 -131 -52 -91 -54 -93 -129 -197 -81 -112 -234 -267
-327 -333 -37 -26 -69 -47 -73 -47 -3 0 -6 9 -6 21 0 13 43 63 119 137 66 64
122 126 126 138 10 36 -24 62 -128 99 -83 30 -310 99 -357 110 -8 2 -53 12
-100 24 -47 11 -96 22 -110 25 -14 2 -63 11 -110 19 -47 9 -105 18 -130 21
-25 3 -70 9 -100 13 -30 4 -154 8 -275 8 -199 0 -264 -3 -390 -20 -76 -10
-170 -45 -232 -85 -119 -78 -177 -167 -303 -465 -40 -93 -80 -188 -90 -210
-10 -22 -83 -191 -163 -375 -347 -802 -308 -713 -374 -844 -23 -45 -34 -37
-36 27 -2 38 40 155 128 362 7 17 51 125 98 240 47 116 156 381 242 590 183
446 206 514 211 645 3 91 3 95 -24 123 -60 63 -124 74 -297 51 -55 -7 -126
-16 -157 -19 -31 -3 -65 -7 -75 -9 -10 -2 -40 -7 -68 -10 -100 -13 -281 -37
-310 -42 -53 -9 -79 -13 -122 -19 -23 -3 -57 -8 -75 -11 -54 -9 -136 -6 -173
6 -26 8 -111 87 -303 278 -464 463 -522 516 -698 630 -160 105 -247 132 -324
101z m629 -1074 c77 -111 131 -235 170 -389 13 -49 9 -215 -5 -239 -11 -20
-24 10 -87 208 -14 44 -57 178 -96 298 -39 120 -71 221 -71 224 0 14 43 -34
89 -102z m201 -2321 c56 -9 121 -34 143 -55 12 -10 24 -19 28 -19 4 0 20 -25
34 -55 23 -46 27 -69 29 -152 3 -120 -3 -144 -36 -161 -32 -15 -60 -6 -108 38
-19 17 -100 88 -179 158 -135 120 -170 160 -165 190 1 6 2 17 3 22 0 6 10 19
20 29 17 17 31 19 108 15 48 -2 104 -7 123 -10z m2308 -319 c9 -1 46 -6 82
-10 36 -4 67 -8 70 -10 3 -2 27 -6 54 -9 93 -13 316 -73 316 -85 0 -3 -39 -33
-87 -66 -47 -33 -91 -64 -97 -70 -43 -37 -174 -96 -243 -109 -70 -13 -66 -13
-263 25 -62 11 -68 11 -120 -13 -84 -39 -116 -8 -108 102 8 97 71 194 157 241
31 16 49 18 129 13 51 -3 100 -7 110 -9z m-2164 -1650 c49 -4 96 -8 105 -10 9
-1 44 -6 78 -10 35 -4 73 -9 85 -10 46 -7 104 -16 128 -21 14 -2 36 -6 50 -9
14 -2 77 -13 140 -24 63 -11 138 -23 165 -26 28 -4 57 -8 65 -10 8 -2 47 -7
85 -11 39 -3 75 -7 80 -8 34 -5 59 -50 44 -78 -5 -9 -84 -79 -176 -156 -403
-334 -424 -348 -472 -323 -10 6 -80 93 -155 193 -252 339 -376 507 -376 510 0
4 39 2 154 -7z m430 -1030 c56 -21 510 -160 556 -170 20 -4 159 -51 233 -77
31 -11 57 -25 57 -30 0 -5 -3 -7 -8 -4 -8 5 -78 17 -127 21 -28 3 -150 21
-205 30 -126 21 -210 35 -235 38 -36 6 -260 45 -295 52 -14 2 -36 7 -50 10
-14 3 -36 7 -50 10 -236 44 -231 42 -179 73 74 43 152 72 195 72 23 0 72 -11
108 -25z"/>
<path d="M15729 14496 c-2 -68 -18 -398 -24 -491 -3 -56 -16 -238 -21 -310 -2
-33 -6 -96 -9 -140 -3 -44 -7 -98 -10 -120 -32 -298 -26 -356 43 -420 15 -14
43 -30 62 -37 146 -48 184 -140 185 -453 0 -174 -8 -285 -30 -395 -3 -14 -8
-38 -10 -55 -5 -26 -23 -121 -30 -150 -23 -108 -103 -355 -154 -480 -35 -87
-152 -318 -200 -394 -228 -368 -475 -574 -841 -702 -278 -97 -517 -120 -885
-84 -22 2 -74 7 -115 10 -41 3 -97 8 -125 10 -27 3 -90 7 -140 10 -49 4 -110
8 -135 10 -158 13 -197 16 -217 21 -89 18 -331 24 -438 10 -129 -16 -305 -68
-433 -127 -35 -16 -66 -29 -69 -29 -4 0 -251 -131 -283 -150 -75 -46 -202
-120 -205 -120 -3 0 -35 -19 -72 -43 -38 -24 -95 -58 -128 -76 -74 -41 -115
-78 -115 -105 0 -33 24 -62 202 -247 140 -145 202 -217 265 -304 17 -24 46
-74 82 -145 129 -253 157 -520 87 -825 -21 -90 -122 -338 -153 -376 -7 -8 -13
-19 -13 -22 0 -11 -70 -117 -129 -197 -31 -41 -85 -118 -121 -171 -36 -53 -78
-114 -95 -135 -34 -43 -335 -396 -345 -404 -3 -3 -19 -22 -34 -42 -36 -49 -30
-93 17 -113 18 -7 34 -12 37 -10 6 4 144 14 260 20 120 6 196 15 265 30 33 8
71 16 85 19 41 7 418 86 510 106 47 10 101 22 120 25 19 3 51 10 70 15 19 5
51 12 70 15 19 3 49 8 65 12 17 4 32 7 35 8 3 1 19 4 35 8 17 4 45 9 62 12 18
3 61 12 95 20 35 8 78 17 95 20 18 3 61 12 95 20 58 13 76 17 148 31 122 24
172 35 192 44 13 5 77 23 143 40 293 76 589 201 978 414 87 47 160 86 162 86
11 0 307 182 420 259 575 389 1009 853 1367 1461 89 151 186 339 233 450 15
36 34 80 41 98 8 17 20 47 28 65 79 185 221 654 241 802 2 11 5 31 8 45 3 14
10 52 16 85 6 33 13 69 15 80 2 11 7 45 11 75 4 30 9 62 10 70 1 8 6 47 9 85
4 39 9 81 11 95 19 115 27 717 12 920 -17 223 -22 271 -43 400 -55 337 -184
698 -343 960 -11 19 -24 42 -28 50 -27 58 -239 345 -329 445 -120 135 -359
364 -431 414 -18 12 -55 26 -83 30 l-50 8 -1 -41z"/>
<path d="M6355 10252 c-50 -37 -227 -168 -395 -292 -168 -124 -334 -247 -370
-273 -36 -27 -74 -55 -85 -63 -11 -8 -54 -39 -95 -70 -41 -30 -101 -74 -133
-97 -32 -23 -64 -47 -70 -52 -7 -6 -77 -58 -157 -117 -230 -169 -294 -216
-307 -227 -7 -6 -16 -11 -22 -11 -5 0 -11 -4 -13 -8 -1 -5 -118 -93 -258 -196
-140 -103 -263 -196 -273 -205 -18 -17 -16 -21 41 -112 79 -124 212 -340 237
-384 110 -192 192 -308 273 -388 100 -97 141 -118 232 -119 105 -1 353 66 497
133 196 92 368 258 397 382 l7 29 34 -27 c60 -45 95 -55 191 -51 102 4 170 24
319 95 105 50 278 153 374 223 85 63 260 244 315 326 98 149 137 302 106 419
-16 61 -63 151 -98 189 -15 17 -52 68 -82 114 -30 47 -57 87 -60 90 -3 3 -117
173 -254 378 -137 205 -252 375 -256 377 -3 2 -46 -27 -95 -63z m-165 -1071
c52 -74 65 -155 36 -224 -44 -105 -143 -172 -256 -172 -63 0 -70 2 -114 39
-43 35 -90 94 -98 123 -3 11 376 261 399 262 6 1 21 -12 33 -28z m-893 -603
c46 -94 40 -173 -20 -246 -93 -114 -248 -113 -357 1 -36 38 -97 135 -88 141
19 14 176 99 342 185 l60 31 20 -33 c11 -17 30 -53 43 -79z"/>
<path d="M19002 10305 c-99 -36 -215 -139 -311 -274 -65 -92 -219 -341 -275
-446 -15 -27 -45 -82 -66 -121 -111 -205 -57 -406 153 -563 61 -45 132 -83
917 -483 124 -64 358 -183 521 -266 391 -200 421 -212 586 -218 102 -3 165 10
244 53 82 44 116 88 301 388 144 233 124 487 -52 665 -46 46 -250 200 -266
200 -3 0 -10 5 -17 11 -10 9 -494 342 -997 687 -69 47 -154 106 -190 131 -146
102 -200 135 -308 188 -124 61 -174 71 -240 48z m436 -887 c23 -9 77 -41 120
-71 134 -93 405 -254 772 -457 143 -79 185 -112 211 -161 21 -42 21 -98 -1
-124 -17 -20 -78 -36 -115 -29 -77 13 -114 31 -575 277 -226 121 -303 162
-437 228 -138 69 -143 72 -167 120 -18 38 -24 63 -22 102 6 116 95 165 214
115z"/>
<path d="M17913 8963 c-183 -192 -244 -255 -473 -493 -97 -102 -192 -201 -210
-220 -17 -19 -70 -74 -117 -122 -65 -66 -81 -88 -70 -95 8 -4 86 -75 173 -158
88 -82 193 -182 234 -220 41 -39 106 -100 143 -135 38 -36 73 -67 78 -69 6 -2
26 14 46 35 19 21 64 69 99 107 l65 68 97 -82 c53 -46 115 -99 137 -119 23
-19 67 -57 100 -85 57 -48 74 -63 196 -166 286 -243 475 -404 479 -409 3 -3
30 -25 60 -50 30 -25 57 -47 60 -50 5 -5 120 -104 170 -146 14 -12 63 -54 110
-94 47 -39 95 -80 108 -91 12 -10 25 -19 28 -19 6 0 339 335 366 368 8 9 1 22
-28 51 -34 33 -319 327 -588 604 -48 51 -188 195 -310 321 -121 126 -254 263
-295 305 -40 42 -98 101 -128 132 l-54 56 128 133 c70 73 129 138 131 145 2 6
-10 25 -25 42 -15 17 -64 70 -108 119 -162 178 -181 200 -231 254 -28 30 -66
73 -86 95 -20 22 -58 64 -85 93 l-48 53 -152 -158z"/>
<path d="M7435 8774 c-41 -37 -224 -206 -280 -259 -18 -16 -79 -73 -135 -125
-56 -52 -119 -111 -140 -130 -21 -19 -64 -59 -96 -89 -33 -30 -91 -84 -129
-120 -70 -65 -104 -97 -324 -301 -62 -58 -125 -116 -140 -130 -15 -14 -78 -73
-141 -131 -63 -59 -131 -122 -151 -140 -20 -19 -82 -77 -139 -129 -57 -52
-122 -113 -145 -135 -70 -66 -245 -228 -277 -256 -16 -15 -25 -29 -20 -30 7
-3 193 -174 268 -246 21 -22 -17 -47 338 225 82 62 154 116 161 118 6 3 29
-17 51 -43 21 -26 41 -50 44 -53 3 -3 25 -30 50 -60 25 -30 47 -57 50 -60 3
-3 25 -30 50 -60 25 -30 55 -66 67 -80 13 -14 23 -27 23 -30 0 -4 -93 -135
-117 -165 -27 -33 -213 -296 -213 -301 0 -3 33 -40 74 -82 41 -42 108 -113
150 -157 l76 -80 51 55 c28 30 67 73 87 95 130 143 243 266 278 305 53 59 147
161 264 289 52 57 103 113 113 125 10 11 60 66 110 120 120 130 126 137 210
230 81 89 149 163 198 217 19 20 70 76 114 124 44 48 91 100 105 115 14 15
106 116 205 226 99 109 191 210 205 224 60 61 72 41 -151 260 -112 111 -317
313 -454 451 l-251 249 -39 -36z m-91 -961 c-26 -38 -74 -104 -105 -148 -32
-44 -67 -93 -79 -110 -12 -16 -50 -70 -85 -120 -35 -49 -90 -127 -122 -172
-32 -45 -60 -82 -63 -82 -3 -1 -34 26 -70 59 -36 33 -80 72 -97 86 l-33 26 28
22 c15 11 34 26 42 33 36 30 625 473 628 473 2 0 -18 -30 -44 -67z"/>
<path d="M16904 7860 c-234 -47 -649 -284 -849 -486 -142 -143 -206 -273 -201
-405 4 -117 28 -159 296 -517 135 -180 289 -386 342 -458 116 -156 203 -240
295 -286 61 -30 76 -33 153 -33 82 0 92 3 319 87 129 49 246 89 260 90 91 6
203 -63 241 -150 43 -95 22 -164 -67 -227 -31 -22 -61 -45 -67 -50 -6 -6 -67
-55 -136 -109 -69 -54 -125 -103 -125 -110 0 -7 12 -28 27 -47 15 -19 72 -93
126 -166 l99 -132 24 19 c13 11 157 121 319 245 330 253 375 290 432 367 118
154 127 285 31 425 -21 31 -42 63 -48 72 -5 9 -12 18 -15 21 -5 5 -39 53 -109
156 -83 121 -193 226 -274 262 -70 30 -171 24 -233 -15 -11 -7 -121 -43 -245
-79 -241 -70 -360 -88 -431 -65 -39 13 -97 88 -121 156 -37 104 11 213 126
287 45 29 101 82 222 213 21 22 63 66 93 99 l56 58 -23 42 c-13 22 -39 64 -57
92 -19 28 -34 56 -34 63 0 6 -4 11 -10 11 -5 0 -10 4 -10 9 0 4 -64 111 -141
237 -78 126 -150 243 -159 260 -35 60 -45 74 -55 73 -5 -1 -28 -5 -51 -9z"/>
<path d="M8474 7583 c-47 -82 -97 -165 -110 -185 -13 -21 -24 -40 -24 -44 0
-3 -8 -18 -19 -32 -10 -15 -29 -47 -43 -72 -14 -25 -60 -103 -102 -174 -42
-70 -76 -130 -76 -133 0 -2 -15 -28 -33 -56 -19 -29 -81 -133 -139 -232 -58
-99 -115 -196 -126 -215 -12 -19 -27 -46 -35 -60 -12 -23 -110 -189 -332 -565
-45 -77 -93 -158 -106 -181 -99 -170 -147 -251 -167 -282 -12 -21 -26 -47 -32
-59 -5 -11 -14 -24 -19 -28 -6 -3 -11 -12 -11 -20 0 -13 26 -29 152 -99 26
-14 83 -45 125 -69 43 -24 105 -59 138 -77 33 -18 114 -63 180 -100 66 -37
147 -82 180 -100 33 -18 79 -43 103 -56 23 -13 63 -36 90 -50 26 -15 73 -42
105 -60 32 -19 63 -34 70 -34 9 0 307 576 307 594 0 2 -35 18 -77 36 -43 17
-91 37 -108 45 -16 7 -115 47 -220 89 -104 42 -191 78 -193 80 -2 2 122 172
275 377 154 206 331 444 394 529 366 492 538 724 591 793 65 87 65 89 -1 129
-20 12 -38 25 -41 28 -8 10 -599 430 -604 430 -3 0 -44 -66 -92 -147z"/>
<path d="M15040 6883 c-278 -107 -567 -217 -642 -246 l-137 -51 14 -31 c7 -16
32 -70 55 -120 23 -49 121 -259 217 -465 219 -470 265 -568 354 -757 23 -49
54 -115 69 -148 15 -33 76 -163 135 -290 59 -126 123 -264 142 -305 19 -41 51
-109 70 -150 20 -41 48 -102 63 -135 81 -175 120 -255 123 -255 5 0 458 190
512 215 17 8 59 26 95 40 36 14 83 34 105 44 22 10 123 53 225 96 102 43 187
79 189 81 2 2 -2 25 -10 51 -7 26 -14 50 -15 53 -7 36 -114 413 -118 417 -2 2
-63 -20 -137 -48 -74 -28 -174 -67 -224 -86 -49 -18 -99 -38 -110 -43 -25 -11
-235 -90 -239 -90 -9 0 -117 313 -113 324 3 6 131 90 286 186 154 96 281 180
281 186 0 10 -36 96 -162 392 -17 39 -32 72 -34 72 -5 0 -495 -205 -541 -226
-17 -8 -35 -14 -41 -14 -5 0 -29 55 -52 123 -24 67 -58 164 -76 214 l-33 93
319 157 c175 87 319 161 320 165 0 7 -58 131 -177 378 -44 91 -102 211 -129
268 -32 66 -54 102 -64 101 -8 -1 -242 -89 -520 -196z"/>
<path d="M9564 6975 c-135 -36 -242 -144 -303 -305 -12 -30 -80 -280 -152
-555 -72 -275 -144 -552 -160 -615 -66 -251 -111 -426 -115 -440 -2 -8 -19
-78 -39 -154 -71 -281 -50 -463 71 -612 58 -72 147 -115 419 -206 17 -5 39
-13 50 -18 95 -38 249 -42 348 -9 85 28 139 61 202 124 84 84 99 116 315 655
34 85 68 169 75 185 7 17 41 99 75 184 34 85 67 166 73 180 5 14 11 28 11 31
1 3 15 39 33 80 17 41 72 179 123 305 50 127 97 244 105 260 43 99 87 280 87
352 -1 121 -142 250 -387 354 -89 38 -249 92 -483 163 -198 60 -252 67 -348
41z m361 -909 c77 -50 78 -129 8 -311 -60 -153 -146 -414 -238 -720 -36 -121
-73 -240 -82 -264 -47 -130 -175 -175 -224 -80 -25 50 -24 122 3 224 25 94 85
310 114 414 13 46 26 93 28 105 3 11 27 100 54 196 27 96 55 200 61 230 27
120 34 135 71 171 61 58 147 73 205 35z"/>
<path d="M14038 6635 c-2 -2 -37 -6 -78 -10 -76 -8 -98 -10 -160 -19 -19 -3
-57 -8 -85 -12 -27 -3 -52 -7 -55 -9 -3 -2 -34 -6 -70 -10 -249 -26 -521 -137
-644 -261 -74 -76 -111 -201 -86 -295 7 -24 13 -51 15 -59 2 -8 13 -55 25
-105 12 -49 23 -97 25 -105 2 -8 11 -46 20 -85 9 -38 19 -81 21 -94 3 -14 7
-28 9 -32 3 -4 7 -24 10 -45 3 -22 8 -46 11 -54 5 -14 39 -173 50 -230 3 -14
13 -68 24 -120 45 -223 102 -558 115 -675 4 -33 8 -71 10 -84 8 -48 15 -107
20 -171 18 -212 146 -404 325 -487 89 -41 184 -58 325 -57 96 1 185 17 647
116 44 9 48 12 44 36 -3 15 -7 67 -11 116 -4 50 -8 98 -10 107 -2 9 -6 52 -10
96 -3 43 -8 87 -10 98 -2 11 -4 28 -4 38 -1 13 -6 17 -18 13 -10 -3 -40 -8
-68 -11 -27 -3 -61 -7 -75 -10 -14 -2 -47 -7 -75 -10 -27 -3 -85 -10 -128 -16
-42 -6 -119 -10 -170 -7 -77 3 -103 9 -151 32 -81 40 -106 83 -132 226 -3 14
-7 32 -9 40 -2 8 -7 31 -10 50 -3 19 -12 71 -21 115 -8 44 -17 96 -20 115 -3
19 -9 60 -14 90 -5 30 -12 82 -16 115 -3 33 -8 67 -9 76 -10 53 -20 212 -20
314 1 100 5 131 25 187 42 120 107 172 225 182 33 3 69 7 80 10 27 6 215 45
246 51 13 3 37 7 53 11 l28 6 -7 76 c-4 42 -8 86 -10 97 -2 11 -6 47 -10 80
-3 33 -8 78 -11 100 -2 22 -6 61 -9 88 -8 73 -15 138 -20 182 -3 22 -7 67 -11
100 -3 33 -7 66 -10 73 -2 7 3 15 11 18 35 14 10 25 -50 23 -36 -1 -66 -3 -67
-4z"/>
<path d="M12126 6472 c-8 -13 -15 -80 -21 -196 -3 -54 -7 -128 -10 -165 -2
-36 -7 -109 -10 -161 -3 -52 -7 -117 -9 -145 -3 -27 -7 -106 -11 -175 -4 -69
-8 -138 -10 -155 -2 -16 -7 -86 -10 -155 -4 -69 -8 -141 -10 -160 -2 -19 -6
-91 -10 -160 -4 -69 -9 -136 -10 -150 -2 -14 -4 -58 -6 -97 -1 -40 -5 -73 -9
-73 -4 0 -11 30 -15 67 -4 37 -8 76 -10 87 -2 12 -6 41 -9 66 -3 25 -12 104
-21 175 -8 72 -17 146 -20 165 -5 37 -32 257 -40 325 -3 22 -7 60 -10 85 -3
25 -8 62 -10 83 -3 20 -7 54 -10 75 -2 20 -7 55 -10 77 -2 22 -7 60 -10 85 -3
25 -8 68 -11 95 -10 95 -32 247 -36 250 -1 1 -34 6 -73 9 -38 3 -88 8 -110 11
-22 3 -58 7 -80 10 -22 2 -71 7 -110 10 -38 4 -77 8 -85 10 -8 2 -49 7 -90 10
-41 4 -82 9 -91 10 -22 4 -167 18 -203 19 -34 1 -31 10 -41 -149 -4 -66 -8
-138 -10 -160 -2 -22 -7 -87 -10 -145 -3 -58 -7 -125 -9 -150 -3 -25 -7 -94
-11 -155 -3 -60 -8 -132 -10 -160 -6 -76 -16 -221 -20 -305 -4 -70 -10 -154
-21 -295 -2 -33 -6 -98 -9 -145 -3 -47 -7 -110 -10 -140 -2 -30 -7 -104 -10
-165 -3 -60 -7 -128 -9 -150 -2 -22 -7 -92 -11 -155 -4 -63 -8 -131 -10 -150
-2 -19 -6 -89 -10 -155 -4 -67 -7 -129 -8 -139 -1 -12 5 -20 18 -21 88 -9 187
-18 220 -20 22 -2 72 -6 111 -10 39 -4 74 -3 77 2 3 4 8 36 12 70 3 34 7 70 9
80 2 10 7 45 10 78 4 33 9 71 11 85 7 53 15 107 20 150 3 25 8 63 11 85 2 22
7 56 9 75 8 75 17 146 20 162 2 9 7 48 10 85 4 37 9 70 10 73 2 3 6 37 10 75
4 39 9 77 10 85 1 8 6 40 9 70 4 30 9 71 11 90 3 19 8 58 11 85 4 28 7 56 7
63 1 19 17 14 18 -5 0 -10 2 -29 5 -43 5 -32 24 -157 29 -190 2 -14 10 -68 19
-120 8 -52 17 -115 21 -140 3 -25 8 -58 11 -73 3 -16 7 -38 9 -50 5 -44 15
-113 25 -174 6 -35 14 -91 20 -125 5 -35 12 -80 15 -101 3 -20 8 -54 11 -75 2
-20 7 -48 9 -62 3 -14 7 -45 11 -70 3 -25 7 -52 9 -60 2 -8 7 -35 10 -60 10
-73 11 -79 16 -84 3 -3 41 -8 85 -11 43 -3 102 -8 129 -10 28 -3 91 -7 140
-10 50 -3 113 -7 140 -10 28 -3 86 -7 130 -10 44 -3 104 -8 133 -11 31 -3 52
-1 52 5 0 5 5 45 10 88 6 43 12 94 14 113 3 19 9 71 15 115 6 44 13 105 16
135 4 30 8 66 10 80 5 34 14 105 20 165 3 28 10 84 15 125 5 41 12 98 15 125
3 28 10 84 15 125 6 41 12 98 15 125 3 28 8 61 10 75 2 14 7 50 10 80 3 30 8
66 10 80 3 22 7 53 20 170 2 19 7 53 9 75 16 125 42 335 52 425 2 25 7 61 10
80 4 34 6 48 19 160 3 30 8 62 10 70 2 8 7 49 10 90 4 41 8 77 10 80 2 3 6 39
10 80 4 41 11 98 15 125 5 28 5 53 2 57 -4 3 -34 9 -67 12 -71 8 -127 15 -175
21 -19 3 -60 8 -90 10 -30 3 -71 7 -90 10 -19 2 -60 7 -90 10 -30 3 -62 8 -72
11 -9 3 -19 1 -22 -4z"/>
<path d="M22790 7540 c0 -5 7 -10 16 -10 8 0 12 5 9 10 -3 6 -10 10 -16 10 -5
0 -9 -4 -9 -10z"/>
</g>
</svg>
